<svg width="456" height="78" viewBox="0 0 456 78" fill="none" xmlns="http://www.w3.org/2000/svg">
<path d="M31 22.3438C28.4792 22.3438 26.2083 22.7812 24.1875 23.6562C22.1875 24.5104 20.4792 25.7604 19.0625 27.4062C17.6667 29.0312 16.5938 31 15.8438 33.3125C15.0938 35.625 14.7188 38.2292 14.7188 41.125C14.7188 44.9583 15.3125 48.2917 16.5 51.125C17.7083 53.9375 19.5 56.1146 21.875 57.6562C24.2708 59.1979 27.2604 59.9688 30.8438 59.9688C32.8854 59.9688 34.8021 59.8021 36.5938 59.4688C38.4062 59.1146 40.1667 58.6771 41.875 58.1562V62.7812C40.2083 63.4062 38.4583 63.8646 36.625 64.1562C34.7917 64.4688 32.6146 64.625 30.0938 64.625C25.4479 64.625 21.5625 63.6667 18.4375 61.75C15.3333 59.8125 13 57.0833 11.4375 53.5625C9.89583 50.0417 9.125 45.8854 9.125 41.0938C9.125 37.6354 9.60417 34.4792 10.5625 31.625C11.5417 28.75 12.9583 26.2708 14.8125 24.1875C16.6875 22.1042 18.9792 20.5 21.6875 19.375C24.4167 18.2292 27.5417 17.6562 31.0625 17.6562C33.375 17.6562 35.6042 17.8854 37.75 18.3438C39.8958 18.8021 41.8333 19.4583 43.5625 20.3125L41.4375 24.8125C39.9792 24.1458 38.375 23.5729 36.625 23.0938C34.8958 22.5938 33.0208 22.3438 31 22.3438ZM80.5312 46.8125C80.5312 49.625 80.1667 52.1354 79.4375 54.3438C78.7083 56.5521 77.6562 58.4167 76.2812 59.9375C74.9062 61.4583 73.2396 62.625 71.2812 63.4375C69.3438 64.2292 67.1458 64.625 64.6875 64.625C62.3958 64.625 60.2917 64.2292 58.375 63.4375C56.4792 62.625 54.8333 61.4583 53.4375 59.9375C52.0625 58.4167 50.9896 56.5521 50.2188 54.3438C49.4688 52.1354 49.0938 49.625 49.0938 46.8125C49.0938 43.0625 49.7292 39.875 51 37.25C52.2708 34.6042 54.0833 32.5938 56.4375 31.2188C58.8125 29.8229 61.6354 29.125 64.9062 29.125C68.0312 29.125 70.7604 29.8229 73.0938 31.2188C75.4479 32.6146 77.2708 34.6354 78.5625 37.2812C79.875 39.9062 80.5312 43.0833 80.5312 46.8125ZM54.4688 46.8125C54.4688 49.5625 54.8333 51.9479 55.5625 53.9688C56.2917 55.9896 57.4167 57.5521 58.9375 58.6562C60.4583 59.7604 62.4167 60.3125 64.8125 60.3125C67.1875 60.3125 69.1354 59.7604 70.6562 58.6562C72.1979 57.5521 73.3333 55.9896 74.0625 53.9688C74.7917 51.9479 75.1562 49.5625 75.1562 46.8125C75.1562 44.0833 74.7917 41.7292 74.0625 39.75C73.3333 37.75 72.2083 36.2083 70.6875 35.125C69.1667 34.0417 67.1979 33.5 64.7812 33.5C61.2188 33.5 58.6042 34.6771 56.9375 37.0312C55.2917 39.3854 54.4688 42.6458 54.4688 46.8125ZM117.781 29.75V64H113.531L112.781 59.1875H112.5C111.792 60.375 110.875 61.375 109.75 62.1875C108.625 63 107.354 63.6042 105.938 64C104.542 64.4167 103.052 64.625 101.469 64.625C98.7604 64.625 96.4896 64.1875 94.6562 63.3125C92.8229 62.4375 91.4375 61.0833 90.5 59.25C89.5833 57.4167 89.125 55.0625 89.125 52.1875V29.75H94.375V51.8125C94.375 54.6667 95.0208 56.8021 96.3125 58.2188C97.6042 59.6146 99.5729 60.3125 102.219 60.3125C104.76 60.3125 106.781 59.8333 108.281 58.875C109.802 57.9167 110.896 56.5104 111.562 54.6562C112.229 52.7812 112.562 50.4896 112.562 47.7812V29.75H117.781ZM133.938 29.75V64H128.75V29.75H133.938ZM131.406 16.9375C132.26 16.9375 132.99 17.2188 133.594 17.7812C134.219 18.3229 134.531 19.1771 134.531 20.3438C134.531 21.4896 134.219 22.3438 133.594 22.9062C132.99 23.4688 132.26 23.75 131.406 23.75C130.51 23.75 129.76 23.4688 129.156 22.9062C128.573 22.3438 128.281 21.4896 128.281 20.3438C128.281 19.1771 128.573 18.3229 129.156 17.7812C129.76 17.2188 130.51 16.9375 131.406 16.9375ZM156 60.375C156.854 60.375 157.729 60.3021 158.625 60.1562C159.521 60.0104 160.25 59.8333 160.812 59.625V63.6562C160.208 63.9271 159.365 64.1562 158.281 64.3438C157.219 64.5312 156.177 64.625 155.156 64.625C153.344 64.625 151.698 64.3125 150.219 63.6875C148.74 63.0417 147.552 61.9583 146.656 60.4375C145.781 58.9167 145.344 56.8125 145.344 54.125V33.8125H140.469V31.2812L145.375 29.25L147.438 21.8125H150.562V29.75H160.594V33.8125H150.562V53.9688C150.562 56.1146 151.052 57.7188 152.031 58.7812C153.031 59.8438 154.354 60.375 156 60.375ZM180.562 29.1875C184.646 29.1875 187.677 30.1042 189.656 31.9375C191.635 33.7708 192.625 36.6979 192.625 40.7188V64H188.844L187.844 58.9375H187.594C186.635 60.1875 185.635 61.2396 184.594 62.0938C183.552 62.9271 182.344 63.5625 180.969 64C179.615 64.4167 177.948 64.625 175.969 64.625C173.885 64.625 172.031 64.2604 170.406 63.5312C168.802 62.8021 167.531 61.6979 166.594 60.2188C165.677 58.7396 165.219 56.8646 165.219 54.5938C165.219 51.1771 166.573 48.5521 169.281 46.7188C171.99 44.8854 176.115 43.8854 181.656 43.7188L187.562 43.4688V41.375C187.562 38.4167 186.927 36.3438 185.656 35.1562C184.385 33.9688 182.594 33.375 180.281 33.375C178.49 33.375 176.781 33.6354 175.156 34.1562C173.531 34.6771 171.99 35.2917 170.531 36L168.938 32.0625C170.479 31.2708 172.25 30.5938 174.25 30.0312C176.25 29.4688 178.354 29.1875 180.562 29.1875ZM187.5 47.125L182.281 47.3438C178.01 47.5104 175 48.2083 173.25 49.4375C171.5 50.6667 170.625 52.4062 170.625 54.6562C170.625 56.6146 171.219 58.0625 172.406 59C173.594 59.9375 175.167 60.4062 177.125 60.4062C180.167 60.4062 182.656 59.5625 184.594 57.875C186.531 56.1875 187.5 53.6562 187.5 50.2812V47.125ZM218.125 64H212.781V23H198.406V18.3125H232.438V23H218.125V64ZM268.094 46.8125C268.094 49.625 267.729 52.1354 267 54.3438C266.271 56.5521 265.219 58.4167 263.844 59.9375C262.469 61.4583 260.802 62.625 258.844 63.4375C256.906 64.2292 254.708 64.625 252.25 64.625C249.958 64.625 247.854 64.2292 245.938 63.4375C244.042 62.625 242.396 61.4583 241 59.9375C239.625 58.4167 238.552 56.5521 237.781 54.3438C237.031 52.1354 236.656 49.625 236.656 46.8125C236.656 43.0625 237.292 39.875 238.562 37.25C239.833 34.6042 241.646 32.5938 244 31.2188C246.375 29.8229 249.198 29.125 252.469 29.125C255.594 29.125 258.323 29.8229 260.656 31.2188C263.01 32.6146 264.833 34.6354 266.125 37.2812C267.438 39.9062 268.094 43.0833 268.094 46.8125ZM242.031 46.8125C242.031 49.5625 242.396 51.9479 243.125 53.9688C243.854 55.9896 244.979 57.5521 246.5 58.6562C248.021 59.7604 249.979 60.3125 252.375 60.3125C254.75 60.3125 256.698 59.7604 258.219 58.6562C259.76 57.5521 260.896 55.9896 261.625 53.9688C262.354 51.9479 262.719 49.5625 262.719 46.8125C262.719 44.0833 262.354 41.7292 261.625 39.75C260.896 37.75 259.771 36.2083 258.25 35.125C256.729 34.0417 254.76 33.5 252.344 33.5C248.781 33.5 246.167 34.6771 244.5 37.0312C242.854 39.3854 242.031 42.6458 242.031 46.8125ZM306.594 46.8125C306.594 49.625 306.229 52.1354 305.5 54.3438C304.771 56.5521 303.719 58.4167 302.344 59.9375C300.969 61.4583 299.302 62.625 297.344 63.4375C295.406 64.2292 293.208 64.625 290.75 64.625C288.458 64.625 286.354 64.2292 284.438 63.4375C282.542 62.625 280.896 61.4583 279.5 59.9375C278.125 58.4167 277.052 56.5521 276.281 54.3438C275.531 52.1354 275.156 49.625 275.156 46.8125C275.156 43.0625 275.792 39.875 277.062 37.25C278.333 34.6042 280.146 32.5938 282.5 31.2188C284.875 29.8229 287.698 29.125 290.969 29.125C294.094 29.125 296.823 29.8229 299.156 31.2188C301.51 32.6146 303.333 34.6354 304.625 37.2812C305.938 39.9062 306.594 43.0833 306.594 46.8125ZM280.531 46.8125C280.531 49.5625 280.896 51.9479 281.625 53.9688C282.354 55.9896 283.479 57.5521 285 58.6562C286.521 59.7604 288.479 60.3125 290.875 60.3125C293.25 60.3125 295.198 59.7604 296.719 58.6562C298.26 57.5521 299.396 55.9896 300.125 53.9688C300.854 51.9479 301.219 49.5625 301.219 46.8125C301.219 44.0833 300.854 41.7292 300.125 39.75C299.396 37.75 298.271 36.2083 296.75 35.125C295.229 34.0417 293.26 33.5 290.844 33.5C287.281 33.5 284.667 34.6771 283 37.0312C281.354 39.3854 280.531 42.6458 280.531 46.8125ZM320.781 64H315.562V15.375H320.781V64ZM353.906 54.625C353.906 56.8125 353.354 58.6562 352.25 60.1562C351.167 61.6354 349.604 62.75 347.562 63.5C345.542 64.25 343.125 64.625 340.312 64.625C337.917 64.625 335.844 64.4375 334.094 64.0625C332.344 63.6875 330.812 63.1562 329.5 62.4688V57.6875C330.896 58.375 332.562 59 334.5 59.5625C336.438 60.125 338.417 60.4062 340.438 60.4062C343.396 60.4062 345.542 59.9271 346.875 58.9688C348.208 58.0104 348.875 56.7083 348.875 55.0625C348.875 54.125 348.604 53.3021 348.062 52.5938C347.542 51.8646 346.656 51.1667 345.406 50.5C344.156 49.8125 342.427 49.0625 340.219 48.25C338.031 47.4167 336.135 46.5938 334.531 45.7812C332.948 44.9479 331.719 43.9375 330.844 42.75C329.99 41.5625 329.562 40.0208 329.562 38.125C329.562 35.2292 330.729 33.0104 333.062 31.4688C335.417 29.9062 338.5 29.125 342.312 29.125C344.375 29.125 346.302 29.3333 348.094 29.75C349.906 30.1458 351.594 30.6875 353.156 31.375L351.406 35.5312C349.99 34.9271 348.479 34.4167 346.875 34C345.271 33.5833 343.635 33.375 341.969 33.375C339.573 33.375 337.729 33.7708 336.438 34.5625C335.167 35.3542 334.531 36.4375 334.531 37.8125C334.531 38.875 334.823 39.75 335.406 40.4375C336.01 41.125 336.969 41.7708 338.281 42.375C339.594 42.9792 341.323 43.6875 343.469 44.5C345.615 45.2917 347.469 46.1146 349.031 46.9688C350.594 47.8021 351.792 48.8229 352.625 50.0312C353.479 51.2188 353.906 52.75 353.906 54.625Z" fill="#6074A4"/>
<path d="M393.062 25.7188C391.208 25.7188 389.562 26.0833 388.125 26.8125C386.708 27.5208 385.51 28.5521 384.531 29.9062C383.573 31.2604 382.844 32.8958 382.344 34.8125C381.844 36.7292 381.594 38.8854 381.594 41.2812C381.594 44.5104 381.99 47.2708 382.781 49.5625C383.594 51.8333 384.844 53.5729 386.531 54.7812C388.219 55.9688 390.396 56.5625 393.062 56.5625C394.917 56.5625 396.771 56.3542 398.625 55.9375C400.5 55.5208 402.531 54.9271 404.719 54.1562V62.2812C402.698 63.1146 400.708 63.7083 398.75 64.0625C396.792 64.4375 394.594 64.625 392.156 64.625C387.448 64.625 383.573 63.6562 380.531 61.7188C377.51 59.7604 375.271 57.0312 373.812 53.5312C372.354 50.0104 371.625 45.9062 371.625 41.2188C371.625 37.7604 372.094 34.5938 373.031 31.7188C373.969 28.8438 375.344 26.3542 377.156 24.25C378.969 22.1458 381.208 20.5208 383.875 19.375C386.542 18.2292 389.604 17.6562 393.062 17.6562C395.333 17.6562 397.604 17.9479 399.875 18.5312C402.167 19.0938 404.354 19.875 406.438 20.875L403.312 28.75C401.604 27.9375 399.885 27.2292 398.156 26.625C396.427 26.0208 394.729 25.7188 393.062 25.7188ZM439.938 37.625L438.469 44.875H446.531V51.3125H437.25L434.844 64H427.969L430.406 51.3125H424.344L421.969 64H415.25L417.562 51.3125H410.125V44.875H418.781L420.25 37.625H412.375V31.0938H421.406L423.812 18.375H430.656L428.25 31.0938H434.438L436.875 18.375H443.594L441.156 31.0938H448.656V37.625H439.938ZM425.562 44.875H431.688L433.156 37.625H427.031L425.562 44.875Z" fill="#006FFF" fill-opacity="0.25"/>
</svg>
