<svg width="345" height="50" viewBox="0 0 345 50" fill="none" xmlns="http://www.w3.org/2000/svg">
<path d="M22 7.34375C19.4792 7.34375 17.2083 7.78125 15.1875 8.65625C13.1875 9.51042 11.4792 10.7604 10.0625 12.4062C8.66667 14.0312 7.59375 16 6.84375 18.3125C6.09375 20.625 5.71875 23.2292 5.71875 26.125C5.71875 29.9583 6.3125 33.2917 7.5 36.125C8.70833 38.9375 10.5 41.1146 12.875 42.6562C15.2708 44.1979 18.2604 44.9688 21.8438 44.9688C23.8854 44.9688 25.8021 44.8021 27.5938 44.4688C29.4062 44.1146 31.1667 43.6771 32.875 43.1562V47.7812C31.2083 48.4062 29.4583 48.8646 27.625 49.1562C25.7917 49.4688 23.6146 49.625 21.0938 49.625C16.4479 49.625 12.5625 48.6667 9.4375 46.75C6.33333 44.8125 4 42.0833 2.4375 38.5625C0.895833 35.0417 0.125 30.8854 0.125 26.0938C0.125 22.6354 0.604167 19.4792 1.5625 16.625C2.54167 13.75 3.95833 11.2708 5.8125 9.1875C7.6875 7.10417 9.97917 5.5 12.6875 4.375C15.4167 3.22917 18.5417 2.65625 22.0625 2.65625C24.375 2.65625 26.6042 2.88542 28.75 3.34375C30.8958 3.80208 32.8333 4.45833 34.5625 5.3125L32.4375 9.8125C30.9792 9.14583 29.375 8.57292 27.625 8.09375C25.8958 7.59375 24.0208 7.34375 22 7.34375ZM71.5312 31.8125C71.5312 34.625 71.1667 37.1354 70.4375 39.3438C69.7083 41.5521 68.6562 43.4167 67.2812 44.9375C65.9062 46.4583 64.2396 47.625 62.2812 48.4375C60.3438 49.2292 58.1458 49.625 55.6875 49.625C53.3958 49.625 51.2917 49.2292 49.375 48.4375C47.4792 47.625 45.8333 46.4583 44.4375 44.9375C43.0625 43.4167 41.9896 41.5521 41.2188 39.3438C40.4688 37.1354 40.0938 34.625 40.0938 31.8125C40.0938 28.0625 40.7292 24.875 42 22.25C43.2708 19.6042 45.0833 17.5938 47.4375 16.2188C49.8125 14.8229 52.6354 14.125 55.9062 14.125C59.0312 14.125 61.7604 14.8229 64.0938 16.2188C66.4479 17.6146 68.2708 19.6354 69.5625 22.2812C70.875 24.9062 71.5312 28.0833 71.5312 31.8125ZM45.4688 31.8125C45.4688 34.5625 45.8333 36.9479 46.5625 38.9688C47.2917 40.9896 48.4167 42.5521 49.9375 43.6562C51.4583 44.7604 53.4167 45.3125 55.8125 45.3125C58.1875 45.3125 60.1354 44.7604 61.6562 43.6562C63.1979 42.5521 64.3333 40.9896 65.0625 38.9688C65.7917 36.9479 66.1562 34.5625 66.1562 31.8125C66.1562 29.0833 65.7917 26.7292 65.0625 24.75C64.3333 22.75 63.2083 21.2083 61.6875 20.125C60.1667 19.0417 58.1979 18.5 55.7812 18.5C52.2188 18.5 49.6042 19.6771 47.9375 22.0312C46.2917 24.3854 45.4688 27.6458 45.4688 31.8125ZM108.781 14.75V49H104.531L103.781 44.1875H103.5C102.792 45.375 101.875 46.375 100.75 47.1875C99.625 48 98.3542 48.6042 96.9375 49C95.5417 49.4167 94.0521 49.625 92.4688 49.625C89.7604 49.625 87.4896 49.1875 85.6562 48.3125C83.8229 47.4375 82.4375 46.0833 81.5 44.25C80.5833 42.4167 80.125 40.0625 80.125 37.1875V14.75H85.375V36.8125C85.375 39.6667 86.0208 41.8021 87.3125 43.2188C88.6042 44.6146 90.5729 45.3125 93.2188 45.3125C95.7604 45.3125 97.7812 44.8333 99.2812 43.875C100.802 42.9167 101.896 41.5104 102.562 39.6562C103.229 37.7812 103.562 35.4896 103.562 32.7812V14.75H108.781ZM124.938 14.75V49H119.75V14.75H124.938ZM122.406 1.9375C123.26 1.9375 123.99 2.21875 124.594 2.78125C125.219 3.32292 125.531 4.17708 125.531 5.34375C125.531 6.48958 125.219 7.34375 124.594 7.90625C123.99 8.46875 123.26 8.75 122.406 8.75C121.51 8.75 120.76 8.46875 120.156 7.90625C119.573 7.34375 119.281 6.48958 119.281 5.34375C119.281 4.17708 119.573 3.32292 120.156 2.78125C120.76 2.21875 121.51 1.9375 122.406 1.9375ZM147 45.375C147.854 45.375 148.729 45.3021 149.625 45.1562C150.521 45.0104 151.25 44.8333 151.812 44.625V48.6562C151.208 48.9271 150.365 49.1562 149.281 49.3438C148.219 49.5312 147.177 49.625 146.156 49.625C144.344 49.625 142.698 49.3125 141.219 48.6875C139.74 48.0417 138.552 46.9583 137.656 45.4375C136.781 43.9167 136.344 41.8125 136.344 39.125V18.8125H131.469V16.2812L136.375 14.25L138.438 6.8125H141.562V14.75H151.594V18.8125H141.562V38.9688C141.562 41.1146 142.052 42.7188 143.031 43.7812C144.031 44.8438 145.354 45.375 147 45.375ZM171.562 14.1875C175.646 14.1875 178.677 15.1042 180.656 16.9375C182.635 18.7708 183.625 21.6979 183.625 25.7188V49H179.844L178.844 43.9375H178.594C177.635 45.1875 176.635 46.2396 175.594 47.0938C174.552 47.9271 173.344 48.5625 171.969 49C170.615 49.4167 168.948 49.625 166.969 49.625C164.885 49.625 163.031 49.2604 161.406 48.5312C159.802 47.8021 158.531 46.6979 157.594 45.2188C156.677 43.7396 156.219 41.8646 156.219 39.5938C156.219 36.1771 157.573 33.5521 160.281 31.7188C162.99 29.8854 167.115 28.8854 172.656 28.7188L178.562 28.4688V26.375C178.562 23.4167 177.927 21.3438 176.656 20.1562C175.385 18.9688 173.594 18.375 171.281 18.375C169.49 18.375 167.781 18.6354 166.156 19.1562C164.531 19.6771 162.99 20.2917 161.531 21L159.938 17.0625C161.479 16.2708 163.25 15.5938 165.25 15.0312C167.25 14.4688 169.354 14.1875 171.562 14.1875ZM178.5 32.125L173.281 32.3438C169.01 32.5104 166 33.2083 164.25 34.4375C162.5 35.6667 161.625 37.4062 161.625 39.6562C161.625 41.6146 162.219 43.0625 163.406 44C164.594 44.9375 166.167 45.4062 168.125 45.4062C171.167 45.4062 173.656 44.5625 175.594 42.875C177.531 41.1875 178.5 38.6562 178.5 35.2812V32.125ZM209.125 49H203.781V8H189.406V3.3125H223.438V8H209.125V49ZM259.094 31.8125C259.094 34.625 258.729 37.1354 258 39.3438C257.271 41.5521 256.219 43.4167 254.844 44.9375C253.469 46.4583 251.802 47.625 249.844 48.4375C247.906 49.2292 245.708 49.625 243.25 49.625C240.958 49.625 238.854 49.2292 236.938 48.4375C235.042 47.625 233.396 46.4583 232 44.9375C230.625 43.4167 229.552 41.5521 228.781 39.3438C228.031 37.1354 227.656 34.625 227.656 31.8125C227.656 28.0625 228.292 24.875 229.562 22.25C230.833 19.6042 232.646 17.5938 235 16.2188C237.375 14.8229 240.198 14.125 243.469 14.125C246.594 14.125 249.323 14.8229 251.656 16.2188C254.01 17.6146 255.833 19.6354 257.125 22.2812C258.438 24.9062 259.094 28.0833 259.094 31.8125ZM233.031 31.8125C233.031 34.5625 233.396 36.9479 234.125 38.9688C234.854 40.9896 235.979 42.5521 237.5 43.6562C239.021 44.7604 240.979 45.3125 243.375 45.3125C245.75 45.3125 247.698 44.7604 249.219 43.6562C250.76 42.5521 251.896 40.9896 252.625 38.9688C253.354 36.9479 253.719 34.5625 253.719 31.8125C253.719 29.0833 253.354 26.7292 252.625 24.75C251.896 22.75 250.771 21.2083 249.25 20.125C247.729 19.0417 245.76 18.5 243.344 18.5C239.781 18.5 237.167 19.6771 235.5 22.0312C233.854 24.3854 233.031 27.6458 233.031 31.8125ZM297.594 31.8125C297.594 34.625 297.229 37.1354 296.5 39.3438C295.771 41.5521 294.719 43.4167 293.344 44.9375C291.969 46.4583 290.302 47.625 288.344 48.4375C286.406 49.2292 284.208 49.625 281.75 49.625C279.458 49.625 277.354 49.2292 275.438 48.4375C273.542 47.625 271.896 46.4583 270.5 44.9375C269.125 43.4167 268.052 41.5521 267.281 39.3438C266.531 37.1354 266.156 34.625 266.156 31.8125C266.156 28.0625 266.792 24.875 268.062 22.25C269.333 19.6042 271.146 17.5938 273.5 16.2188C275.875 14.8229 278.698 14.125 281.969 14.125C285.094 14.125 287.823 14.8229 290.156 16.2188C292.51 17.6146 294.333 19.6354 295.625 22.2812C296.938 24.9062 297.594 28.0833 297.594 31.8125ZM271.531 31.8125C271.531 34.5625 271.896 36.9479 272.625 38.9688C273.354 40.9896 274.479 42.5521 276 43.6562C277.521 44.7604 279.479 45.3125 281.875 45.3125C284.25 45.3125 286.198 44.7604 287.719 43.6562C289.26 42.5521 290.396 40.9896 291.125 38.9688C291.854 36.9479 292.219 34.5625 292.219 31.8125C292.219 29.0833 291.854 26.7292 291.125 24.75C290.396 22.75 289.271 21.2083 287.75 20.125C286.229 19.0417 284.26 18.5 281.844 18.5C278.281 18.5 275.667 19.6771 274 22.0312C272.354 24.3854 271.531 27.6458 271.531 31.8125ZM311.781 49H306.562V0.375H311.781V49ZM344.906 39.625C344.906 41.8125 344.354 43.6562 343.25 45.1562C342.167 46.6354 340.604 47.75 338.562 48.5C336.542 49.25 334.125 49.625 331.312 49.625C328.917 49.625 326.844 49.4375 325.094 49.0625C323.344 48.6875 321.812 48.1562 320.5 47.4688V42.6875C321.896 43.375 323.562 44 325.5 44.5625C327.438 45.125 329.417 45.4062 331.438 45.4062C334.396 45.4062 336.542 44.9271 337.875 43.9688C339.208 43.0104 339.875 41.7083 339.875 40.0625C339.875 39.125 339.604 38.3021 339.062 37.5938C338.542 36.8646 337.656 36.1667 336.406 35.5C335.156 34.8125 333.427 34.0625 331.219 33.25C329.031 32.4167 327.135 31.5938 325.531 30.7812C323.948 29.9479 322.719 28.9375 321.844 27.75C320.99 26.5625 320.562 25.0208 320.562 23.125C320.562 20.2292 321.729 18.0104 324.062 16.4688C326.417 14.9062 329.5 14.125 333.312 14.125C335.375 14.125 337.302 14.3333 339.094 14.75C340.906 15.1458 342.594 15.6875 344.156 16.375L342.406 20.5312C340.99 19.9271 339.479 19.4167 337.875 19C336.271 18.5833 334.635 18.375 332.969 18.375C330.573 18.375 328.729 18.7708 327.438 19.5625C326.167 20.3542 325.531 21.4375 325.531 22.8125C325.531 23.875 325.823 24.75 326.406 25.4375C327.01 26.125 327.969 26.7708 329.281 27.375C330.594 27.9792 332.323 28.6875 334.469 29.5C336.615 30.2917 338.469 31.1146 340.031 31.9688C341.594 32.8021 342.792 33.8229 343.625 35.0312C344.479 36.2188 344.906 37.75 344.906 39.625Z" fill="#6074A4"/>
</svg>
